<svg width="32" height="32" viewBox="0 0 32 32" fill="none" xmlns="http://www.w3.org/2000/svg">
<path d="M27 19C28.654 19 30 17.654 30 16C30 14.346 28.654 13 27 13C26.3816 13.0018 25.7789 13.1951 25.2747 13.5532C24.7704 13.9113 24.3895 14.4167 24.184 15H18.414L25.714 7.7C26.106 7.887 26.538 8 27 8C28.654 8 30 6.654 30 5C30 3.346 28.654 2 27 2C25.346 2 24 3.346 24 5C24 5.462 24.114 5.894 24.3 6.285L16 14.586V8C16 6.898 16.897 6 18 6H20V4H18C16.8 4 15.734 4.543 15 5.382C14.628 4.95031 14.1677 4.60352 13.6501 4.36509C13.1326 4.12667 12.5698 4.00216 12 4H11C6.038 4 2 8.037 2 13V19C2 23.963 6.038 28 11 28H12C13.2 28 14.266 27.458 15 26.618C15.734 27.458 16.8 28 18 28H20V26H18C16.897 26 16 25.103 16 24V17.414L24.3 25.715C24.113 26.106 24 26.538 24 27C24 28.655 25.346 30 27 30C28.654 30 30 28.655 30 27C30 25.345 28.654 24 27 24C26.5545 24.0023 26.1152 24.1052 25.715 24.301L18.414 17.001H24.184C24.3896 17.5841 24.7707 18.0893 25.2749 18.4472C25.7791 18.8051 26.3817 18.9982 27 19ZM27 15C27.2652 15 27.5196 15.1054 27.7071 15.2929C27.8946 15.4804 28 15.7348 28 16C28 16.2652 27.8946 16.5196 27.7071 16.7071C27.5196 16.8946 27.2652 17 27 17C26.7348 17 26.4804 16.8946 26.2929 16.7071C26.1054 16.5196 26 16.2652 26 16C26 15.7348 26.1054 15.4804 26.2929 15.2929C26.4804 15.1054 26.7348 15 27 15ZM27 4C27.2575 4.01152 27.5006 4.12191 27.6787 4.30818C27.8569 4.49446 27.9563 4.74226 27.9563 5C27.9563 5.25774 27.8569 5.50554 27.6787 5.69182C27.5006 5.87809 27.2575 5.98848 27 6C26.7348 6 26.4804 5.89464 26.2929 5.70711C26.1054 5.51957 26 5.26522 26 5C26 4.73478 26.1054 4.48043 26.2929 4.29289C26.4804 4.10536 26.7348 4 27 4ZM14 12H12V14H14V18H12C10.346 18 9 19.346 9 21V23H11V21C11 20.7348 11.1054 20.4804 11.2929 20.2929C11.4804 20.1054 11.7348 20 12 20H14V24C14 25.103 13.103 26 12 26H11C7.48 26 4.568 23.387 4.08 20H6V18H4V14H7C8.654 14 10 12.654 10 11V9H8V11C8 11.2652 7.89464 11.5196 7.70711 11.7071C7.51957 11.8946 7.26522 12 7 12H4.08C4.568 8.613 7.48 6 11 6H12C13.103 6 14 6.898 14 8V12ZM28 27C27.9885 27.2575 27.8781 27.5006 27.6918 27.6787C27.5055 27.8569 27.2577 27.9563 27 27.9563C26.7423 27.9563 26.4945 27.8569 26.3082 27.6787C26.1219 27.5006 26.0115 27.2575 26 27C26 26.449 26.449 26 27 26C27.551 26 28 26.449 28 27Z" fill="white"/>
</svg>
