<svg width="28" height="28" viewBox="0 0 28 28" fill="none" xmlns="http://www.w3.org/2000/svg">
<path d="M25 17C26.654 17 28 15.654 28 14C28 12.346 26.654 11 25 11C24.3816 11.0018 23.7789 11.1951 23.2747 11.5532C22.7704 11.9113 22.3895 12.4167 22.184 13H16.414L23.714 5.7C24.106 5.887 24.538 6 25 6C26.654 6 28 4.654 28 3C28 1.346 26.654 0 25 0C23.346 0 22 1.346 22 3C22 3.462 22.114 3.894 22.3 4.285L14 12.586V6C14 4.898 14.897 4 16 4H18V2H16C14.8 2 13.734 2.543 13 3.382C12.628 2.95031 12.1677 2.60352 11.6501 2.36509C11.1326 2.12667 10.5698 2.00216 10 2H9C4.038 2 0 6.037 0 11V17C0 21.963 4.038 26 9 26H10C11.2 26 12.266 25.458 13 24.618C13.734 25.458 14.8 26 16 26H18V24H16C14.897 24 14 23.103 14 22V15.414L22.3 23.715C22.113 24.106 22 24.538 22 25C22 26.655 23.346 28 25 28C26.654 28 28 26.655 28 25C28 23.345 26.654 22 25 22C24.5545 22.0023 24.1152 22.1052 23.715 22.301L16.414 15.001H22.184C22.3896 15.5841 22.7707 16.0893 23.2749 16.4472C23.7791 16.8051 24.3817 16.9982 25 17ZM25 13C25.2652 13 25.5196 13.1054 25.7071 13.2929C25.8946 13.4804 26 13.7348 26 14C26 14.2652 25.8946 14.5196 25.7071 14.7071C25.5196 14.8946 25.2652 15 25 15C24.7348 15 24.4804 14.8946 24.2929 14.7071C24.1054 14.5196 24 14.2652 24 14C24 13.7348 24.1054 13.4804 24.2929 13.2929C24.4804 13.1054 24.7348 13 25 13ZM25 2C25.2575 2.01152 25.5006 2.12191 25.6787 2.30818C25.8569 2.49446 25.9563 2.74226 25.9563 3C25.9563 3.25774 25.8569 3.50554 25.6787 3.69182C25.5006 3.87809 25.2575 3.98848 25 4C24.7348 4 24.4804 3.89464 24.2929 3.70711C24.1054 3.51957 24 3.26522 24 3C24 2.73478 24.1054 2.48043 24.2929 2.29289C24.4804 2.10536 24.7348 2 25 2ZM12 10H10V12H12V16H10C8.346 16 7 17.346 7 19V21H9V19C9 18.7348 9.10536 18.4804 9.29289 18.2929C9.48043 18.1054 9.73478 18 10 18H12V22C12 23.103 11.103 24 10 24H9C5.48 24 2.568 21.387 2.08 18H4V16H2V12H5C6.654 12 8 10.654 8 9V7H6V9C6 9.26522 5.89464 9.51957 5.70711 9.70711C5.51957 9.89464 5.26522 10 5 10H2.08C2.568 6.613 5.48 4 9 4H10C11.103 4 12 4.898 12 6V10ZM26 25C25.9885 25.2575 25.8781 25.5006 25.6918 25.6787C25.5055 25.8569 25.2577 25.9563 25 25.9563C24.7423 25.9563 24.4945 25.8569 24.3082 25.6787C24.1219 25.5006 24.0115 25.2575 24 25C24 24.449 24.449 24 25 24C25.551 24 26 24.449 26 25Z" fill="white"/>
</svg>
