<svg width="27" height="27" viewBox="0 0 27 27" fill="none" xmlns="http://www.w3.org/2000/svg">
<path d="M26.2811 24.3867L24.3877 26.28C24.1379 26.5283 23.8 26.6677 23.4477 26.6677C23.0955 26.6677 22.7575 26.5283 22.5077 26.28L6.66772 10.4667C6.23417 10.5924 5.78576 10.6597 5.33439 10.6667C4.48546 10.6661 3.64894 10.4628 2.89438 10.0738C2.13981 9.68482 1.48901 9.12133 0.996073 8.43017C0.503136 7.73902 0.182309 6.94018 0.0602655 6.10006C-0.0617781 5.25995 0.018488 4.40284 0.29439 3.6L3.68106 6.98667L4.38772 6.28L6.28106 4.38667L6.98772 3.68L3.60106 0.293333C4.4039 0.017431 5.26101 -0.0628351 6.10112 0.0592086C6.94123 0.181252 7.74007 0.502079 8.43123 0.995016C9.12238 1.48795 9.68588 2.13876 10.0749 2.89332C10.4639 3.64788 10.6671 4.4844 10.6677 5.33333C10.6608 5.7847 10.5935 6.23312 10.4677 6.66667L26.2811 22.5067C26.5294 22.7565 26.6688 23.0944 26.6688 23.4467C26.6688 23.7989 26.5294 24.1369 26.2811 24.3867ZM0.387724 22.5067C0.139389 22.7565 0 23.0944 0 23.4467C0 23.7989 0.139389 24.1369 0.387724 24.3867L2.28106 26.28C2.53087 26.5283 2.86881 26.6677 3.22106 26.6677C3.5733 26.6677 3.91124 26.5283 4.16106 26.28L11.4544 19L7.68106 15.2267M24.0011 0L18.6677 2.66667V5.33333L15.7744 8.22667L18.4411 10.8933L21.3344 8H24.0011L26.6677 2.66667L24.0011 0Z" fill="white"/>
</svg>
