<svg width="24" height="24" viewBox="0 0 24 24" fill="none" xmlns="http://www.w3.org/2000/svg">
<path d="M20 7C20 8.32608 19.4732 9.59785 18.5355 10.5355C17.5979 11.4732 16.3261 12 15 12C13.6739 12 12.4021 11.4732 11.4645 10.5355C10.5268 9.59785 10 8.32608 10 7C10 5.67392 10.5268 4.40215 11.4645 3.46447C12.4021 2.52678 13.6739 2 15 2C16.3261 2 17.5979 2.52678 18.5355 3.46447C19.4732 4.40215 20 5.67392 20 7Z" stroke="white" stroke-width="1.5"/>
<path d="M15.375 4.5L13.5 7H16.5L14.625 9.5M4 14H6.395C6.689 14 6.979 14.066 7.242 14.194L9.284 15.182C9.547 15.309 9.837 15.375 10.132 15.375H11.174C12.182 15.375 13 16.166 13 17.142C13 17.182 12.973 17.216 12.934 17.227L10.393 17.93C9.93705 18.056 9.45087 18.0119 9.025 17.806L6.842 16.75M13 16.5L17.593 15.089C17.9929 14.9663 18.4213 14.9731 18.817 15.1083C19.2128 15.2435 19.5558 15.5003 19.797 15.842C20.166 16.352 20.016 17.084 19.478 17.394L11.963 21.731C11.728 21.867 11.4678 21.9537 11.1982 21.9858C10.9287 22.018 10.6554 21.9949 10.395 21.918L4 20.02" stroke="white" stroke-width="1.5" stroke-linecap="round" stroke-linejoin="round"/>
</svg>
