<svg width="29" height="29" viewBox="0 0 29 29" fill="none" xmlns="http://www.w3.org/2000/svg">
<path d="M24.75 11.5873C24.75 6.478 24.75 3.92467 23.1873 2.33667C21.6247 0.748667 19.1113 0.75 14.0833 0.75H11.4167C6.38867 0.75 3.874 0.75 2.31267 2.33667C0.751333 3.92333 0.75 6.478 0.75 11.5873C0.75 16.6967 0.75 19.25 2.31267 20.838C2.93933 21.474 3.718 21.8553 4.75 22.0833" stroke="white" stroke-width="1.5" stroke-linecap="round"/>
<path d="M27.4167 21.416C27.4167 18.916 27.4167 17.6667 26.7807 16.7893C26.5751 16.5064 26.3263 16.2576 26.0433 16.052C25.166 15.416 23.9167 15.416 21.4167 15.416H14.75C12.25 15.416 11.0007 15.416 10.1233 16.052C9.8404 16.2576 9.59158 16.5064 9.386 16.7893C8.75 17.668 8.75 18.9173 8.75 21.416C8.75 23.9147 8.75 25.1653 9.386 26.0427C9.59198 26.3257 9.84126 26.5745 10.1247 26.78C11.0007 27.416 12.25 27.416 14.75 27.416H21.4167C23.9167 27.416 25.166 27.416 26.0433 26.78C26.3263 26.5744 26.5751 26.3256 26.7807 26.0427C27.4167 25.1653 27.4167 23.916 27.4167 21.416Z" stroke="white" stroke-width="1.5"/>
<path d="M20.0837 19.4173L21.3103 20.4747C21.8263 20.9187 22.0837 21.1413 22.0837 21.4173C22.0837 21.6933 21.8263 21.916 21.3103 22.36L20.0837 23.4173M16.0837 19.4173L14.857 20.4747C14.341 20.9187 14.0837 21.1413 14.0837 21.4173C14.0837 21.6933 14.341 21.916 14.857 22.36L16.0837 23.4173M1.41699 6.08398H24.0837" stroke="white" stroke-width="1.5" stroke-linecap="round" stroke-linejoin="round"/>
</svg>
