<svg width="24" height="24" viewBox="0 0 24 24" fill="none" xmlns="http://www.w3.org/2000/svg">
<path fill-rule="evenodd" clip-rule="evenodd" d="M20.3089 4.76883C21.6707 6.19326 22.21 8.15222 21.9269 9.99998H19.8921C20.1975 8.66109 19.8545 7.18772 18.8632 6.15093C17.3961 4.61639 15.0562 4.61639 13.5891 6.15093L12 7.81308L10.4108 6.15089C8.9437 4.61634 6.60384 4.61634 5.1367 6.15089C4.14543 7.18772 3.8025 8.66109 4.10789 9.99998H2.07314C1.78992 8.15222 2.32926 6.19322 3.69107 4.76878C5.78315 2.58065 9.08128 2.42268 11.3474 4.29501C11.5262 4.44288 11.6962 4.60107 11.8565 4.76878L12 4.91892L12.1435 4.76883C12.3062 4.59862 12.4762 4.4407 12.6525 4.29501C14.9187 2.42268 18.2168 2.58061 20.3089 4.76883ZM16.8816 14H19.6486L12 22L4.3514 14H7.11839L12 19.1059L16.8816 14ZM9 5.76393L6.381 11H2.00001V13H7.61803L9 10.236L12 16.236L13.618 13H22V11H14.618L13.5 8.76393L12 11.763L9 5.76393Z" fill="white"/>
</svg>
