<svg width="32" height="32" viewBox="0 0 32 32" fill="none" xmlns="http://www.w3.org/2000/svg">
<path d="M9.33366 30.6673C8.60033 30.6673 7.97277 30.4064 7.45099 29.8847C6.92921 29.3629 6.66788 28.7349 6.66699 28.0007V4.00065C6.66699 3.26732 6.92833 2.63976 7.45099 2.11798C7.97366 1.59621 8.60121 1.33487 9.33366 1.33398H22.667C23.4003 1.33398 24.0283 1.59532 24.551 2.11798C25.0737 2.64065 25.3345 3.26821 25.3337 4.00065V8.13398C25.7337 8.28954 26.0559 8.53398 26.3003 8.86732C26.5448 9.20065 26.667 9.57843 26.667 10.0007V12.6673C26.667 13.0895 26.5448 13.4673 26.3003 13.8007C26.0559 14.134 25.7337 14.3784 25.3337 14.534V28.0007C25.3337 28.734 25.0728 29.362 24.551 29.8847C24.0292 30.4073 23.4012 30.6682 22.667 30.6673H9.33366ZM9.33366 28.0007H22.667V4.00065H9.33366V28.0007ZM16.0003 8.00065C16.3781 8.00065 16.695 7.87265 16.951 7.61665C17.207 7.36065 17.3345 7.04421 17.3337 6.66732C17.3328 6.29043 17.2048 5.97398 16.9497 5.71798C16.6945 5.46198 16.3781 5.33398 16.0003 5.33398C15.6225 5.33398 15.3061 5.46198 15.051 5.71798C14.7959 5.97398 14.6679 6.29043 14.667 6.66732C14.6661 7.04421 14.7941 7.3611 15.051 7.61798C15.3079 7.87487 15.6243 8.00243 16.0003 8.00065Z" fill="white"/>
</svg>
