<svg width="32" height="32" viewBox="0 0 32 32" fill="none" xmlns="http://www.w3.org/2000/svg">
<path d="M30 21C30.5523 21 31 20.5523 31 20C31 19.4477 30.5523 19 30 19C29.4477 19 29 19.4477 29 20C29 20.5523 29.4477 21 30 21Z" fill="white"/>
<path d="M2 21C2.55228 21 3 20.5523 3 20C3 19.4477 2.55228 19 2 19C1.44772 19 1 19.4477 1 20C1 20.5523 1.44772 21 2 21Z" fill="white"/>
<path d="M24.0001 25.9991C22.9477 25.9977 21.9141 25.7195 21.0031 25.1924C20.0922 24.6653 19.3359 23.9079 18.8101 22.9961L17.0771 23.9961C18.4601 26.3861 21.0401 27.9991 24.0001 27.9991C26.9601 27.9991 29.5401 26.3871 30.9231 23.9961L29.1901 22.9961C28.6644 23.9079 27.9081 24.6653 26.9972 25.1924C26.0862 25.7195 25.0526 25.9977 24.0001 25.9991Z" fill="white"/>
<path d="M24.0003 14C25.0533 14.0019 26.0873 14.2799 26.9993 14.8063C27.9112 15.3327 28.6691 16.0891 29.1973 17L30.9293 15.999C29.5023 13.532 26.8473 12 24.0003 12C21.1533 12 18.4983 13.532 17.0623 16.015L13.1973 23C12.1273 24.85 10.1363 26 8.00031 26C5.86431 26 3.87331 24.85 2.80331 23L1.07031 24.001C2.49831 26.468 5.15331 28 8.00031 28C10.8473 28 13.5023 26.468 14.9383 23.985L18.8033 17C19.8733 15.15 21.8643 14 24.0003 14Z" fill="white"/>
<path d="M8.00015 14C9.05262 14.0014 10.0862 14.2796 10.9972 14.8067C11.9081 15.3338 12.6644 16.0912 13.1901 17.003L14.9231 16.003C13.5401 13.613 10.9601 12 8.00015 12C5.04015 12 2.46015 13.613 1.07715 16.003L2.81015 17.003C3.33586 16.0912 4.09215 15.3338 5.00312 14.8067C5.91409 14.2796 6.94768 14.0014 8.00015 14ZM16.0001 6C17.3133 5.99917 18.6137 6.25776 19.8266 6.76092C21.0396 7.26408 22.1412 8.0019 23.0681 8.932L24.4801 7.52C22.3081 5.346 19.3081 4 16.0001 4C12.6921 4 9.69215 5.346 7.51915 7.519L8.93215 8.932C9.85913 8.0019 10.9607 7.26408 12.1737 6.76092C13.3866 6.25776 14.687 5.99917 16.0001 6Z" fill="white"/>
</svg>
