<svg width="24" height="24" viewBox="0 0 24 24" fill="none" xmlns="http://www.w3.org/2000/svg">
<path fill-rule="evenodd" clip-rule="evenodd" d="M19.159 1.11408C18.8247 -0.377346 16.711 -0.368775 16.3904 1.12437L16.3544 1.29065L17.1927 1.47065L16.3527 1.29065C16.1688 2.17498 15.7255 2.98443 15.0794 3.61559C14.4333 4.24676 13.6137 4.67098 12.7253 4.83408C11.1893 5.10665 11.1893 7.32494 12.7253 7.59751C13.6135 7.76007 14.4332 8.18365 15.0796 8.81418C15.726 9.44471 16.1698 10.2536 16.3544 11.1375L16.3887 11.3038C16.711 12.7952 18.823 12.8072 19.159 11.3158L19.2018 11.1221C19.3944 10.2408 19.8431 9.43615 20.4915 8.80908C21.14 8.182 21.9592 7.7605 22.8464 7.59751C24.3858 7.32494 24.3858 5.10323 22.8464 4.83065C21.9589 4.66797 21.1393 4.24661 20.4905 3.61951C19.8418 2.99241 19.3928 2.18756 19.2001 1.30608L19.159 1.11408ZM12.4253 0.894654C10.4345 -0.0907499 8.13974 -0.26788 6.02134 0.400342C3.90295 1.06856 2.12515 2.53033 1.06012 4.47965C-0.00491888 6.42897 -0.274624 8.7147 0.307459 10.8584C0.889543 13.002 2.27829 14.8374 4.18298 15.9804V17.8558C4.18298 18.3618 4.384 18.8471 4.74182 19.205C5.09964 19.5628 5.58495 19.7638 6.09098 19.7638H11.1121C11.3627 19.7638 11.6108 19.7144 11.8423 19.6186C12.0738 19.5227 12.2841 19.3821 12.4613 19.205C12.6385 19.0278 12.779 18.8174 12.8749 18.586C12.9708 18.3545 13.0201 18.1064 13.0201 17.8558V15.9838C13.7675 15.5381 14.4413 14.9827 15.019 14.3381C15.205 14.1259 15.2997 13.8489 15.2827 13.5673C15.2657 13.2856 15.1383 13.0221 14.9281 12.8338C14.718 12.6456 14.442 12.5478 14.1602 12.5617C13.8784 12.5757 13.6135 12.7003 13.423 12.9084C12.8729 13.5194 12.2121 14.0208 11.4755 14.3861C11.2965 14.4749 11.1456 14.6117 11.0397 14.7812C10.9338 14.9507 10.8769 15.1462 10.8756 15.3461V17.6227H6.32584V15.3478C6.32493 15.1485 6.26888 14.9533 6.16389 14.7838C6.0589 14.6144 5.90907 14.4773 5.73098 14.3878C4.21503 13.6154 3.06501 12.2762 2.5307 10.6609C1.99639 9.0456 2.12094 7.28473 2.87729 5.76073C3.63365 4.23673 4.96073 3.07268 6.5703 2.52139C8.17988 1.9701 9.94196 2.0761 11.4738 2.81637C11.7282 2.94021 12.0211 2.95845 12.2889 2.86711C12.5566 2.77577 12.7773 2.58226 12.9029 2.3288C13.0285 2.07534 13.0488 1.78249 12.9593 1.51414C12.8698 1.24579 12.6778 1.02201 12.4253 0.894654ZM5.35726 21.8569C5.0731 21.8569 4.80058 21.9698 4.59965 22.1708C4.39872 22.3717 4.28584 22.6442 4.28584 22.9284C4.28584 23.2125 4.39872 23.4851 4.59965 23.686C4.80058 23.8869 5.0731 23.9998 5.35726 23.9998H11.7858C12.07 23.9998 12.3425 23.8869 12.5435 23.686C12.7444 23.4851 12.8573 23.2125 12.8573 22.9284C12.8573 22.6442 12.7444 22.3717 12.5435 22.1708C12.3425 21.9698 12.07 21.8569 11.7858 21.8569H5.35726Z" fill="white"/>
</svg>
