<svg width="29" height="24" viewBox="0 0 29 24" fill="none" xmlns="http://www.w3.org/2000/svg">
<path d="M15 22.3333H3C2.46957 22.3333 1.96086 22.1226 1.58579 21.7475C1.21071 21.3725 1 20.8638 1 20.3333V3C1 2.46957 1.21071 1.96086 1.58579 1.58579C1.96086 1.21071 2.46957 1 3 1H25.6667C26.1971 1 26.7058 1.21071 27.0809 1.58579C27.456 1.96086 27.6667 2.46957 27.6667 3V12.294" stroke="white" stroke-width="2" stroke-linecap="round" stroke-linejoin="round"/>
<path d="M1 3C1 2.46957 1.21071 1.96086 1.58579 1.58579C1.96086 1.21071 2.46957 1 3 1H25.6667C26.1971 1 26.7058 1.21071 27.0809 1.58579C27.456 1.96086 27.6667 2.46957 27.6667 3V9H1V3Z" stroke="white" stroke-width="2"/>
<path d="M19.667 19H27.667M23.667 15V23" stroke="white" stroke-width="2" stroke-linecap="round" stroke-linejoin="round"/>
<path d="M3.66634 5.00065C3.66634 4.26427 4.26329 3.66732 4.99967 3.66732C5.73605 3.66732 6.33301 4.26427 6.33301 5.00065C6.33301 5.73703 5.73605 6.33398 4.99967 6.33398C4.26329 6.33398 3.66634 5.73703 3.66634 5.00065Z" fill="white"/>
<path d="M7.66634 5.00065C7.66634 4.26427 8.26329 3.66732 8.99967 3.66732C9.73605 3.66732 10.333 4.26427 10.333 5.00065C10.333 5.73703 9.73605 6.33398 8.99967 6.33398C8.26329 6.33398 7.66634 5.73703 7.66634 5.00065Z" fill="white"/>
</svg>
