<svg width="36" height="32" viewBox="0 0 36 32" fill="none" xmlns="http://www.w3.org/2000/svg">
<rect width="36" height="32" rx="4" fill="white"/>
<path d="M10.8889 24C10.637 24 10.4261 23.872 10.256 23.616C10.0859 23.36 10.0006 23.0435 10 22.6666C9.99941 22.2898 10.0847 21.9733 10.256 21.7173C10.4273 21.4613 10.6382 21.3333 10.8889 21.3333H25.1111C25.363 21.3333 25.5742 21.4613 25.7449 21.7173C25.9156 21.9733 26.0006 22.2898 26 22.6666C25.9994 23.0435 25.9141 23.3604 25.744 23.6173C25.5739 23.8742 25.363 24.0018 25.1111 24H10.8889ZM10.8889 17.3333C10.637 17.3333 10.4261 17.2053 10.256 16.9493C10.0859 16.6933 10.0006 16.3769 10 16C9.99941 15.6231 10.0847 15.3067 10.256 15.0507C10.4273 14.7947 10.6382 14.6667 10.8889 14.6667H25.1111C25.363 14.6667 25.5742 14.7947 25.7449 15.0507C25.9156 15.3067 26.0006 15.6231 26 16C25.9994 16.3769 25.9141 16.6938 25.744 16.9507C25.5739 17.2075 25.363 17.3351 25.1111 17.3333H10.8889ZM10.8889 10.6667C10.637 10.6667 10.4261 10.5387 10.256 10.2827C10.0859 10.0267 10.0006 9.71022 10 9.33333C9.99941 8.95644 10.0847 8.64 10.256 8.384C10.4273 8.128 10.6382 8 10.8889 8H25.1111C25.363 8 25.5742 8.128 25.7449 8.384C25.9156 8.64 26.0006 8.95644 26 9.33333C25.9994 9.71022 25.9141 10.0271 25.744 10.284C25.5739 10.5409 25.363 10.6684 25.1111 10.6667H10.8889Z" fill="#1F2937"/>
</svg>
